<?xml version="1.0" encoding="UTF-8" standalone="no" ?>
<!DOCTYPE svg PUBLIC "-//W3C//DTD SVG 1.1//EN" "http://www.w3.org/Graphics/SVG/1.1/DTD/svg11.dtd">
<svg xmlns="http://www.w3.org/2000/svg" xmlns:xlink="http://www.w3.org/1999/xlink" version="1.1" width="1280" height="1024" viewBox="0 0 1280 1024" xml:space="preserve">
<defs>
</defs>
<g transform="matrix(1 0 0 1 640 512)" id="background-logo"  >
<rect style="stroke: none; stroke-width: 0; stroke-dasharray: none; stroke-linecap: butt; stroke-dashoffset: 0; stroke-linejoin: miter; stroke-miterlimit: 4; fill: rgb(255,255,255); fill-opacity: 0; fill-rule: nonzero; opacity: 1;"  paint-order="stroke"  x="-640" y="-512" rx="0" ry="0" width="1280" height="1024" />
</g>
<g transform="matrix(1.9211538461538462 0 0 1.9211538461538462 640 400.25812916785475)" id="logo-logo"  >
<g style=""  paint-order="stroke"   >
		<g transform="matrix(1.7939168907834628 0 0 -1.7939168907834628 34.179099269414166 0)"  >
<linearGradient id="SVGID_2_247565" gradientUnits="userSpaceOnUse" gradientTransform="matrix(63.617153 0 0 -63.617153 283.10648 540)"  x1="0" y1="0" x2="1" y2="0">
<stop offset="0%" style="stop-color:rgb(27,151,247);stop-opacity: 1"/>
<stop offset="100%" style="stop-color:rgb(45,32,138);stop-opacity: 1"/>
<stop offset="100%" style="stop-color:rgb(45,32,138);stop-opacity: 1"/>
</linearGradient>
<path style="stroke: none; stroke-width: 1; stroke-dasharray: none; stroke-linecap: butt; stroke-dashoffset: 0; stroke-linejoin: miter; stroke-miterlimit: 4; fill: url(#SVGID_2_247565); fill-rule: nonzero; opacity: 1;"  paint-order="stroke"  transform=" translate(-314.9147774419288, -540)" d="M 289.55 578.237 C 280.988 561.1129999999999 280.957 540.963 289.468 523.813 L 289.468 523.813 L 306.67400000000004 489.137 L 346.723 489.137 L 295.861 590.863 z" stroke-linecap="round" />
</g>
		<g transform="matrix(1.7939168907834628 0 0 -1.7939168907834628 -45.621100449514245 60.584161071860535)"  >
<linearGradient id="SVGID_3_247566" gradientUnits="userSpaceOnUse" gradientTransform="matrix(50.861622 0 0 -50.861622 245.0004 506.22839)"  x1="0" y1="0" x2="1" y2="0">
<stop offset="0%" style="stop-color:rgb(27,151,247);stop-opacity: 1"/>
<stop offset="100%" style="stop-color:rgb(45,32,138);stop-opacity: 1"/>
<stop offset="100%" style="stop-color:rgb(45,32,138);stop-opacity: 1"/>
</linearGradient>
<path style="stroke: none; stroke-width: 1; stroke-dasharray: none; stroke-linecap: butt; stroke-dashoffset: 0; stroke-linejoin: miter; stroke-miterlimit: 4; fill: url(#SVGID_3_247566); fill-rule: nonzero; opacity: 1;"  paint-order="stroke"  transform=" translate(-270.431, -506.2280000912409)" d="M 255.925 510.988 L 245.001 489.137 L 285.051 489.137 L 295.861 510.926 C 291.764 519.185 283.82 523.318 275.877 523.319 L 275.877 523.319 C 267.956 523.3199999999999 260.03700000000003 519.211 255.925 510.98799999999994" stroke-linecap="round" />
</g>
</g>
</g>
<g transform="matrix(1.9211538461538462 0 0 1.9211538461538462 640.8563872162493 665.7906884016892)" id="text-logo"  >
<g style=""  paint-order="stroke"   >
		<g transform="matrix(1 0 0 1 0 0)" id="text-logo-path-0"  >
<path style="stroke: none; stroke-width: 0; stroke-dasharray: none; stroke-linecap: butt; stroke-dashoffset: 0; stroke-linejoin: miter; stroke-miterlimit: 4; fill: rgb(36,88,190); fill-rule: nonzero; opacity: 1;"  paint-order="stroke"  transform=" translate(-124.62, 22.075000000000003)" d="M 7.5 -4.17 Q 2.51 -9.14 2.51 -16.07 Q 2.51 -23 7.5 -27.97 Q 12.49 -32.94 19.51 -32.94 L 19.51 -32.94 Q 24.08 -32.94 28.27 -30.52 Q 32.46 -28.09 34.1 -24.08 L 34.1 -24.08 L 34.1 -32.18 L 36.36 -32.18 L 36.36 0 L 34.1 0 L 34.1 -7.99 Q 32.11 -3.91 28.09 -1.55 Q 24.08 0.8 19.51 0.8 L 19.51 0.8 Q 12.49 0.8 7.5 -4.17 Z M 9.18 -26.49 Q 4.78 -22.02 4.78 -16.02 Q 4.78 -10.02 9.18 -5.62 Q 13.58 -1.22 19.61 -1.22 Q 25.65 -1.22 29.94 -5.62 Q 34.24 -10.02 34.24 -16.05 Q 34.24 -22.09 29.91 -26.52 Q 25.58 -30.96 19.58 -30.96 Q 13.58 -30.96 9.18 -26.49 Z M 50.11 -3.8 L 50.11 -3.8 L 50.11 -7.22 Q 52.83 -1.22 58.8 -1.22 L 58.8 -1.22 Q 62.5 -1.22 65.04 -3.51 Q 67.59 -5.79 67.59 -8.62 Q 67.59 -11.45 65.99 -13.37 Q 64.38 -15.29 62.1 -16.65 Q 59.81 -18.01 57.56 -19.33 Q 55.31 -20.66 53.7 -22.54 Q 52.1 -24.43 52.1 -26.98 Q 52.1 -29.52 54.14 -31.27 Q 56.18 -33.01 59.39 -33.01 Q 62.6 -33.01 64.87 -30.5 L 64.87 -30.5 L 64.87 -27.6 Q 62.6 -31.02 59.11 -31.02 L 59.11 -31.02 Q 57.26 -31.02 55.81 -29.8 Q 54.37 -28.58 54.37 -26.8 Q 54.37 -25.02 55.99 -23.52 Q 57.61 -22.02 59.86 -20.76 Q 62.11 -19.51 64.4 -18.08 Q 66.68 -16.65 68.29 -14.43 Q 69.9 -12.21 69.9 -9.35 L 69.9 -9.35 Q 69.9 -5.13 66.72 -2.16 Q 63.54 0.8 59.04 0.8 L 59.04 0.8 Q 56.18 0.8 53.7 -0.45 Q 51.22 -1.71 50.11 -3.8 Z M 83.08 -11.66 L 83.08 -11.66 L 83.08 -45.09 L 85.38 -45.09 L 85.38 -32.11 L 95.26 -32.11 L 95.26 -30.08 L 85.38 -30.08 L 85.38 -11.66 Q 85.38 -7.29 88.28 -4.43 Q 91.18 -1.57 95.33 -1.57 L 95.33 -1.57 L 95.33 0.42 Q 90.27 0.42 86.67 -2.97 Q 83.08 -6.35 83.08 -11.66 Z M 111.31 -4.31 Q 106.39 -9.42 106.39 -16.21 Q 106.39 -23 111.38 -27.97 Q 116.37 -32.94 123.42 -32.94 Q 130.47 -32.94 135.44 -27.97 Q 140.41 -23 140.41 -16.18 Q 140.41 -9.35 135.54 -4.28 Q 130.67 0.8 123.73 0.8 L 123.73 0.8 L 123.1 0.8 Q 116.23 0.8 111.31 -4.31 Z M 113.05 -26.49 Q 108.65 -22.02 108.65 -16.02 Q 108.65 -10.02 113.05 -5.62 Q 117.45 -1.22 123.49 -1.22 Q 129.52 -1.22 133.82 -5.62 Q 138.11 -10.02 138.11 -16.05 Q 138.11 -22.09 133.78 -26.52 Q 129.45 -30.96 123.45 -30.96 Q 117.45 -30.96 113.05 -26.49 Z M 156.6 0 L 154.33 0 L 154.33 -32.18 L 156.6 -32.18 L 156.6 -25.65 Q 160.23 -32.94 169.06 -32.94 L 169.06 -32.94 Q 175.06 -32.94 179.12 -28.81 Q 183.19 -24.67 183.19 -18.74 L 183.19 -18.74 L 183.19 0 L 180.92 0 L 180.92 -18.74 Q 180.92 -23.66 177.45 -27.31 Q 173.98 -30.96 169.04 -30.96 Q 164.1 -30.96 160.35 -27.31 Q 156.6 -23.66 156.6 -18.74 L 156.6 -18.74 L 156.6 0 Z M 201 -39.96 Q 198.92 -39.96 198.92 -41.88 Q 198.92 -43.8 201 -43.8 Q 203.08 -43.8 203.08 -41.88 Q 203.08 -39.96 201 -39.96 Z M 202.13 0 L 199.86 0 L 199.86 -32.11 L 202.13 -32.11 L 202.13 0 Z M 221.91 -4.14 Q 216.99 -9.21 216.99 -16.04 Q 216.99 -22.86 221.98 -27.83 Q 226.97 -32.8 234.27 -32.8 Q 241.56 -32.8 246.73 -27.29 L 246.73 -27.29 L 246.73 -23.66 Q 244.53 -26.94 241.13 -28.88 Q 237.72 -30.82 233.99 -30.82 L 233.99 -30.82 Q 228.06 -30.82 223.66 -26.42 Q 219.26 -22.02 219.26 -15.95 Q 219.26 -9.88 223.66 -5.48 Q 228.06 -1.08 233.99 -1.08 L 233.99 -1.08 Q 237.69 -1.08 241.09 -3 Q 244.49 -4.92 246.73 -8.31 L 246.73 -8.31 L 246.73 -4.57 Q 241.7 0.94 234.34 0.94 L 234.34 0.94 L 233.71 0.94 Q 226.83 0.94 221.91 -4.14 Z" stroke-linecap="round" />
</g>
</g>
</g>
</svg>